<svg xmlns="http://www.w3.org/2000/svg" width="24" height="24" viewBox="0 0 24 24" fill="none">
<g clip-path="url(#clip0_4418_3729)">
<path d="M2 22H22" stroke="#fff" stroke-width="1.5" stroke-linecap="round" stroke-linejoin="round" />
<path d="M17.5601 10C19.4001 10 20.8901 11.34 20.8901 13V22" stroke="#fff" stroke-width="1.5" stroke-linecap="round" stroke-linejoin="round" />
<path d="M3.10986 22V13C3.10986 11.34 4.59986 10 6.43986 10H13.2999" stroke="#fff" stroke-width="1.5" stroke-linecap="round" stroke-linejoin="round" />
<path d="M5.56006 10V7.17C5.56006 5.97 6.64006 5 7.98006 5H16.0301C17.3601 5 18.4401 5.97 18.4401 7.17V10" stroke="#fff" stroke-width="1.5" stroke-linecap="round" stroke-linejoin="round" />
<path d="M20.4702 14H20.0202C19.2802 14 18.6702 14.6 18.6702 15.35V15.66C18.6702 16.4 18.0702 17.01 17.3202 17.01C16.5802 17.01 15.9702 16.41 15.9702 15.66V15.35C15.9702 14.61 15.3702 14 14.6202 14C13.8802 14 13.2702 14.6 13.2702 15.35V15.66C13.2702 16.4 12.6702 17.01 11.9202 17.01C11.1802 17.01 10.5702 16.41 10.5702 15.66V15.35C10.6002 14.6 10.0002 14 9.26016 14C8.52016 14 7.91016 14.6 7.91016 15.35" stroke="#fff" stroke-width="1.5" stroke-linecap="round" stroke-linejoin="round" />
<path d="M3.52979 13.9805L3.89979 13.9905C4.63979 14.0005 5.22979 14.6005 5.22979 15.3405V15.6705C5.22979 16.4105 5.82979 17.0205 6.57979 17.0205" stroke="#fff" stroke-width="1.5" stroke-linecap="round" stroke-linejoin="round" />
<path d="M8 5V3" stroke="#fff" stroke-width="1.5" stroke-linecap="round" stroke-linejoin="round" />
<path d="M16 5V3" stroke="#fff" stroke-width="1.5" stroke-linecap="round" stroke-linejoin="round" />
<path d="M12 5V2" stroke="#fff" stroke-width="1.5" stroke-linecap="round" stroke-linejoin="round" />
</g>
<defs>
<clipPath id="clip0_4418_3729">
<rect width="24" height="24" fill="white"/>
</clipPath>
</defs>
</svg>